<?xml version="1.0" standalone="no"?>
<!DOCTYPE svg PUBLIC "-//W3C//DTD SVG 20010904//EN"
 "http://www.w3.org/TR/2001/REC-SVG-20010904/DTD/svg10.dtd">
<svg version="1.0" xmlns="http://www.w3.org/2000/svg"
 width="500.000000pt" height="500.000000pt" viewBox="0 0 500.000000 500.000000"
 preserveAspectRatio="xMidYMid meet">

<g transform="translate(0.000000,500.000000) scale(0.100000,-0.100000)"
fill="#000000" stroke="none">
<path d="M2715 2400 c-22 -11 -31 -18 -20 -15 98 21 140 14 219 -35 54 -35 68
-32 46 8 -34 61 -162 83 -245 42z"/>
<path d="M2095 2385 c-38 -20 -65 -51 -65 -76 0 -17 9 -13 61 23 59 42 63 43
140 43 72 0 76 1 46 12 -47 17 -147 16 -182 -2z"/>
<path d="M2761 2308 c-149 -23 -259 -165 -248 -320 5 -77 31 -134 85 -191 40
-42 108 -82 116 -69 3 5 -10 14 -29 20 -42 16 -111 90 -137 150 -14 32 -21 67
-20 113 0 120 56 207 167 260 232 111 487 -121 396 -361 -10 -27 -33 -68 -51
-90 -17 -22 -27 -40 -22 -40 5 0 22 16 36 35 99 129 90 299 -20 409 -71 71
-167 100 -273 84z"/>
<path d="M2119 2299 c-100 -15 -183 -79 -231 -179 -32 -64 -31 -176 0 -245 24
-52 58 -95 76 -95 5 0 -2 12 -17 28 -40 42 -68 115 -69 180 -3 215 197 356
398 281 229 -86 247 -420 29 -528 -31 -16 -35 -20 -18 -21 30 0 102 57 139
112 18 26 36 71 43 105 41 210 -137 395 -350 362z"/>
<path d="M2158 2129 c-11 -6 -18 -22 -18 -39 0 -39 35 -42 52 -5 15 33 -7 60
-34 44z"/>
<path d="M2797 2133 c-13 -12 -7 -50 9 -63 12 -11 18 -10 31 3 14 13 14 21 5
42 -11 24 -31 32 -45 18z"/>
<path d="M2229 2083 c-39 -34 -59 -79 -59 -137 0 -56 14 -93 47 -128 80 -84
193 -9 193 127 0 69 -23 121 -64 146 -43 26 -79 24 -117 -8z"/>
<path d="M2643 2094 c-93 -46 -108 -201 -28 -281 105 -105 244 64 175 214 -18
42 -69 83 -100 83 -8 0 -30 -8 -47 -16z"/>
<path d="M2570 1730 c-43 -23 -79 -25 -125 -6 -19 8 -35 11 -35 6 0 -4 20 -16
45 -25 51 -20 101 -15 137 14 32 27 20 33 -22 11z"/>
<path d="M1684 1728 c-4 -7 -10 -215 -12 -464 -3 -339 -2 -453 7 -459 7 -4 54
-15 106 -26 202 -41 595 -201 610 -249 6 -18 15 -20 100 -20 89 0 94 1 97 23
6 46 271 154 567 232 74 19 138 38 143 43 5 5 7 207 6 450 -3 499 -1 482 -73
457 -22 -8 -182 -60 -357 -116 -271 -88 -318 -106 -327 -126 -9 -20 -18 -23
-66 -23 -48 0 -57 3 -66 24 -9 19 -65 42 -352 145 -188 66 -350 121 -359 121
-9 0 -20 -5 -24 -12z m1576 -153 c0 -50 -4 -85 -10 -85 -6 0 -10 31 -10 74 l0
75 -72 -25 c-78 -26 -98 -30 -82 -14 10 10 140 58 162 59 9 1 12 -22 12 -84z
m4 -296 c6 -154 4 -192 -8 -178 -7 8 -14 349 -6 349 4 0 10 -77 14 -171z m6
-209 c0 -5 -4 -10 -10 -10 -5 0 -10 5 -10 10 0 6 5 10 10 10 6 0 10 -4 10 -10z
m0 -40 c0 -5 -4 -10 -10 -10 -5 0 -10 5 -10 10 0 6 5 10 10 10 6 0 10 -4 10
-10z"/>
</g>
</svg>
