<?xml version="1.0" encoding="utf-8"?>
<!-- Generator: Adobe Illustrator 16.0.0, SVG Export Plug-In . SVG Version: 6.00 Build 0)  -->
<!DOCTYPE svg PUBLIC "-//W3C//DTD SVG 1.1//EN" "http://www.w3.org/Graphics/SVG/1.1/DTD/svg11.dtd">
<svg version="1.1" id="Livello_1" xmlns="http://www.w3.org/2000/svg" xmlns:xlink="http://www.w3.org/1999/xlink" x="0px" y="0px"
	 width="100px" height="100px" viewBox="0 0 100 100" enable-background="new 0 0 100 100" xml:space="preserve">
<rect fill="none" width="100" height="100"/>
<g>
	<rect x="11.345" y="16.049" width="4.09" height="67.902"/>
	<rect x="17.48" y="16.049" width="4.09" height="67.902"/>
	<rect x="23.616" y="16.049" width="2.045" height="67.902"/>
	<rect x="27.937" y="16.049" width="2.813" height="67.902"/>
	<rect x="32.819" y="16.049" width="4.091" height="67.902"/>
	<rect x="37.933" y="16.049" width="5.727" height="67.902"/>
	<rect x="45.194" y="16.049" width="4.09" height="67.902"/>
	<rect x="51.33" y="16.049" width="2.964" height="67.902"/>
	<rect x="56.441" y="16.049" width="2.045" height="67.902"/>
	<rect x="60.123" y="16.049" width="4.092" height="67.902"/>
	<rect x="65.951" y="16.049" width="5.933" height="67.902"/>
	<rect x="73.417" y="16.049" width="2.045" height="67.902"/>
	<rect x="77.201" y="16.049" width="4.091" height="67.902"/>
	<rect x="82.622" y="16.049" width="6.033" height="67.902"/>
</g>
</svg>
